solid OpenSCAD_Model
  facet normal -1 0 0
    outer loop
      vertex -1.65 -1.65 -1.2
      vertex -1.65 50.25 0
      vertex -1.65 50.25 -1.2
    endloop
  endfacet
  facet normal -1 -0 0
    outer loop
      vertex -1.65 50.25 0
      vertex -1.65 -1.65 -1.2
      vertex -1.65 -1.65 0
    endloop
  endfacet
  facet normal 0 0 1
    outer loop
      vertex 48.75 0 0
      vertex 50.25 50.25 0
      vertex 48.75 48.75 0
    endloop
  endfacet
  facet normal 0 0 1
    outer loop
      vertex 50.25 50.25 0
      vertex 0 48.75 0
      vertex 48.75 48.75 0
    endloop
  endfacet
  facet normal 0 0 1
    outer loop
      vertex 0 48.75 0
      vertex -1.65 50.25 0
      vertex 0 0 0
    endloop
  endfacet
  facet normal -0 0 1
    outer loop
      vertex -1.65 50.25 0
      vertex 0 48.75 0
      vertex 50.25 50.25 0
    endloop
  endfacet
  facet normal 0 0 1
    outer loop
      vertex 50.25 50.25 0
      vertex 48.75 0 0
      vertex 50.25 -1.65 0
    endloop
  endfacet
  facet normal -0 0 1
    outer loop
      vertex 0 0 0
      vertex 50.25 -1.65 0
      vertex 48.75 0 0
    endloop
  endfacet
  facet normal 0 0 1
    outer loop
      vertex 0 0 0
      vertex -1.65 -1.65 0
      vertex 50.25 -1.65 0
    endloop
  endfacet
  facet normal 0 0 1
    outer loop
      vertex -1.65 -1.65 0
      vertex 0 0 0
      vertex -1.65 50.25 0
    endloop
  endfacet
  facet normal 1 -0 0
    outer loop
      vertex 50.25 -1.65 0
      vertex 50.25 50.25 -1.2
      vertex 50.25 50.25 0
    endloop
  endfacet
  facet normal 1 0 0
    outer loop
      vertex 50.25 50.25 -1.2
      vertex 50.25 -1.65 0
      vertex 50.25 -1.65 -1.2
    endloop
  endfacet
  facet normal 0 0 -1
    outer loop
      vertex -1.65 -1.65 -1.2
      vertex 50.25 50.25 -1.2
      vertex 50.25 -1.65 -1.2
    endloop
  endfacet
  facet normal -0 0 -1
    outer loop
      vertex 50.25 50.25 -1.2
      vertex -1.65 -1.65 -1.2
      vertex -1.65 50.25 -1.2
    endloop
  endfacet
  facet normal 0 -1 0
    outer loop
      vertex -1.65 -1.65 -1.2
      vertex 50.25 -1.65 0
      vertex -1.65 -1.65 0
    endloop
  endfacet
  facet normal 0 -1 -0
    outer loop
      vertex 50.25 -1.65 0
      vertex -1.65 -1.65 -1.2
      vertex 50.25 -1.65 -1.2
    endloop
  endfacet
  facet normal 0 1 -0
    outer loop
      vertex 50.25 50.25 -1.2
      vertex -1.65 50.25 0
      vertex 50.25 50.25 0
    endloop
  endfacet
  facet normal 0 1 0
    outer loop
      vertex -1.65 50.25 0
      vertex 50.25 50.25 -1.2
      vertex -1.65 50.25 -1.2
    endloop
  endfacet
  facet normal -1 0 0
    outer loop
      vertex 0 0 0
      vertex 0 48.75 1.05
      vertex 0 48.75 0
    endloop
  endfacet
  facet normal -1 -0 0
    outer loop
      vertex 0 48.75 1.05
      vertex 0 0 0
      vertex 0 0 1.05
    endloop
  endfacet
  facet normal -0 0 1
    outer loop
      vertex 0 48.75 1.05
      vertex 48.75 0 1.05
      vertex 48.75 48.75 1.05
    endloop
  endfacet
  facet normal 0 0 1
    outer loop
      vertex 48.75 0 1.05
      vertex 0 48.75 1.05
      vertex 0 0 1.05
    endloop
  endfacet
  facet normal 1 -0 0
    outer loop
      vertex 48.75 0 1.05
      vertex 48.75 48.75 0
      vertex 48.75 48.75 1.05
    endloop
  endfacet
  facet normal 1 0 0
    outer loop
      vertex 48.75 48.75 0
      vertex 48.75 0 1.05
      vertex 48.75 0 0
    endloop
  endfacet
  facet normal 0 1 -0
    outer loop
      vertex 48.75 48.75 0
      vertex 0 48.75 1.05
      vertex 48.75 48.75 1.05
    endloop
  endfacet
  facet normal 0 1 0
    outer loop
      vertex 0 48.75 1.05
      vertex 48.75 48.75 0
      vertex 0 48.75 0
    endloop
  endfacet
  facet normal 0 -1 0
    outer loop
      vertex 0 0 0
      vertex 48.75 0 1.05
      vertex 0 0 1.05
    endloop
  endfacet
  facet normal 0 -1 -0
    outer loop
      vertex 48.75 0 1.05
      vertex 0 0 0
      vertex 48.75 0 0
    endloop
  endfacet
endsolid OpenSCAD_Model
