solid OpenSCAD_Model
  facet normal -1 0 0
    outer loop
      vertex -1.7 -1.7 -1
      vertex -1.7 32.3 0
      vertex -1.7 32.3 -1
    endloop
  endfacet
  facet normal -1 -0 0
    outer loop
      vertex -1.7 32.3 0
      vertex -1.7 -1.7 -1
      vertex -1.7 -1.7 0
    endloop
  endfacet
  facet normal 0 0 1
    outer loop
      vertex 32.3 32.3 0
      vertex 30.6 30.6 0
      vertex 32.3 -1.7 0
    endloop
  endfacet
  facet normal 0 0 1
    outer loop
      vertex 32.3 32.3 0
      vertex 0 30.6 0
      vertex 30.6 30.6 0
    endloop
  endfacet
  facet normal 0 0 1
    outer loop
      vertex 0 30.6 0
      vertex -1.7 32.3 0
      vertex 0 0 0
    endloop
  endfacet
  facet normal -0 0 1
    outer loop
      vertex -1.7 32.3 0
      vertex 0 30.6 0
      vertex 32.3 32.3 0
    endloop
  endfacet
  facet normal -0 0 1
    outer loop
      vertex 30.6 0 0
      vertex 32.3 -1.7 0
      vertex 30.6 30.6 0
    endloop
  endfacet
  facet normal -0 0 1
    outer loop
      vertex 0 0 0
      vertex 32.3 -1.7 0
      vertex 30.6 0 0
    endloop
  endfacet
  facet normal 0 0 1
    outer loop
      vertex 0 0 0
      vertex -1.7 -1.7 0
      vertex 32.3 -1.7 0
    endloop
  endfacet
  facet normal 0 0 1
    outer loop
      vertex -1.7 -1.7 0
      vertex 0 0 0
      vertex -1.7 32.3 0
    endloop
  endfacet
  facet normal 1 -0 0
    outer loop
      vertex 32.3 -1.7 0
      vertex 32.3 32.3 -1
      vertex 32.3 32.3 0
    endloop
  endfacet
  facet normal 1 0 0
    outer loop
      vertex 32.3 32.3 -1
      vertex 32.3 -1.7 0
      vertex 32.3 -1.7 -1
    endloop
  endfacet
  facet normal 0 1 -0
    outer loop
      vertex 32.3 32.3 -1
      vertex -1.7 32.3 0
      vertex 32.3 32.3 0
    endloop
  endfacet
  facet normal 0 1 0
    outer loop
      vertex -1.7 32.3 0
      vertex 32.3 32.3 -1
      vertex -1.7 32.3 -1
    endloop
  endfacet
  facet normal 0 0 -1
    outer loop
      vertex -1.7 -1.7 -1
      vertex 32.3 32.3 -1
      vertex 32.3 -1.7 -1
    endloop
  endfacet
  facet normal -0 0 -1
    outer loop
      vertex 32.3 32.3 -1
      vertex -1.7 -1.7 -1
      vertex -1.7 32.3 -1
    endloop
  endfacet
  facet normal 0 -1 0
    outer loop
      vertex -1.7 -1.7 -1
      vertex 32.3 -1.7 0
      vertex -1.7 -1.7 0
    endloop
  endfacet
  facet normal 0 -1 -0
    outer loop
      vertex 32.3 -1.7 0
      vertex -1.7 -1.7 -1
      vertex 32.3 -1.7 -1
    endloop
  endfacet
  facet normal -1 0 0
    outer loop
      vertex 0 0 0
      vertex 0 30.6 1
      vertex 0 30.6 0
    endloop
  endfacet
  facet normal -1 -0 0
    outer loop
      vertex 0 30.6 1
      vertex 0 0 0
      vertex 0 0 1
    endloop
  endfacet
  facet normal -0 0 1
    outer loop
      vertex 0 30.6 1
      vertex 30.6 0 1
      vertex 30.6 30.6 1
    endloop
  endfacet
  facet normal 0 0 1
    outer loop
      vertex 30.6 0 1
      vertex 0 30.6 1
      vertex 0 0 1
    endloop
  endfacet
  facet normal 1 -0 0
    outer loop
      vertex 30.6 0 1
      vertex 30.6 30.6 0
      vertex 30.6 30.6 1
    endloop
  endfacet
  facet normal 1 0 0
    outer loop
      vertex 30.6 30.6 0
      vertex 30.6 0 1
      vertex 30.6 0 0
    endloop
  endfacet
  facet normal 0 -1 0
    outer loop
      vertex 0 0 0
      vertex 30.6 0 1
      vertex 0 0 1
    endloop
  endfacet
  facet normal 0 -1 -0
    outer loop
      vertex 30.6 0 1
      vertex 0 0 0
      vertex 30.6 0 0
    endloop
  endfacet
  facet normal 0 1 -0
    outer loop
      vertex 30.6 30.6 0
      vertex 0 30.6 1
      vertex 30.6 30.6 1
    endloop
  endfacet
  facet normal 0 1 0
    outer loop
      vertex 0 30.6 1
      vertex 30.6 30.6 0
      vertex 0 30.6 0
    endloop
  endfacet
endsolid OpenSCAD_Model
